{"asset":{"generator":"Khronos glTF Spline I/O v0.0.1","version":"2.0"},"scenes":[{"nodes":[0]}],"nodes":[{"name":"","children":[1,2,3,4,5,6,7,8]},{"name":"Cylinder 3","matrix":[0.02311375100720655,-0.9997049350577605,-0.007469761390118185,0,0.009013591111331258,0.011274358348009142,-1.4809969424352987,0,-0.9997143175096392,-0.02306719320996076,-0.006260029053984594,0,107.31524530078897,113.58148873016296,25.930751193229945,1],"mesh":0},{"name":"Cylinder","matrix":[0.02311375100839649,-0.9997049350577536,-0.007469761388671193,0,-0.0009391591694368086,-0.01108788609348598,1.4810254812951196,0,0.9997326404690732,0.02310836198230039,0.0008069617821182894,0,102.31687284418412,114.8748492282341,35.44211994467008,1],"mesh":1},{"name":"Text 2","matrix":[-1,1.2246467991473532e-16,1.4997597826618576e-32,0,1.2246467991473532e-16,1,1.2246467991473532e-16,0,0,1.537975394502258e-16,-1.2558522143470725,0,216.28051757812494,233.6220316745351,25.26426626454589,1],"mesh":2},{"name":"Text 4","matrix":[-0.9999998878516317,-0.00047359975083920413,0,0,-0.00047359975083920413,0.9999998878516317,0,0,0,0,1.2558522143470725,0,267.9705290987713,79.81593134164252,17.64179788942728,1],"mesh":3},{"name":"Text 3","matrix":[0.9999998878516317,0.00047359975083919535,0,0,-0.00047359975083919535,0.9999998878516317,0,0,0,0,1.2558522143470725,0,381.6138416509827,79.81593134164252,25.91994018957962,1],"mesh":4},{"name":"Text","matrix":[1,0,0,0,0,1,0,0,0,0,1.2558522143470725,0,218.8505173171074,232.6220316745351,21.79764349204438,1],"mesh":5},{"name":"card","matrix":[2.111737466506227,0,0,0,0,1.9299350771524222,0,0,0,0,2.8882286562738693,0,220.96289727412108,165.10467049002173,37.734763468455924,1.0000000000000002],"children":[9]},{"name":"Personal Camera","camera":0,"translation":[262.8609195716523,189.63825544967224,-601.0963809292404],"rotation":[-0.0029304794561738,0.9970515232612516,0.05113890851350701,0.05713566564434231]},{"name":"Rectangle 2","matrix":[1,0,0,0,0,1,0,0,0,0,1,0,-0.925975111942722,0,-6.07301753172942,1],"mesh":6}],"cameras":[{"type":"orthographic","orthographic":{"xmag":2509,"ymag":1415,"zfar":100000,"znear":-100000}}],"meshes":[{"primitives":[{"attributes":{"POSITION":1,"NORMAL":2,"TEXCOORD_0":3},"indices":0}]},{"primitives":[{"attributes":{"POSITION":5,"NORMAL":6,"TEXCOORD_0":7},"indices":4}]},{"primitives":[{"attributes":{"POSITION":9,"NORMAL":10,"TEXCOORD_0":11,"RANDOMCOLOR":12},"indices":8}]},{"primitives":[{"attributes":{"POSITION":14,"NORMAL":15,"TEXCOORD_0":16,"RANDOMCOLOR":17},"indices":13}]},{"primitives":[{"attributes":{"POSITION":19,"NORMAL":20,"TEXCOORD_0":21,"RANDOMCOLOR":22},"indices":18}]},{"primitives":[{"attributes":{"POSITION":24,"NORMAL":25,"TEXCOORD_0":26,"RANDOMCOLOR":27},"indices":23}]},{"primitives":[{"attributes":{"POSITION":29,"NORMAL":30,"TEXCOORD_0":31},"indices":28}]}],"buffers":[{"uri":"data:application/octet-stream;base64,","byteLength":56504},{"uri":"data:application/octet-stream;base64,","byteLength":56504},{"uri":"data:application/octet-stream;base64,","byteLength":106512},{"uri":"data:application/octet-stream;base64,","byteLength":111376},{"uri":"data:application/octet-stream;base64,","byteLength":111376},{"uri":"data:application/octet-stream;base64,","byteLength":106512},{"uri":"data:application/octet-stream;base64,","byteLength":34896}],"bufferViews":[{"buffer":0,"byteOffset":0,"byteLength":6264,"target":34963},{"buffer":0,"byteOffset":6264,"byteLength":18840,"target":34962},{"buffer":0,"byteOffset":25104,"byteLength":18840,"target":34962},{"buffer":0,"byteOffset":43944,"byteLength":12560,"target":34962},{"buffer":1,"byteOffset":0,"byteLength":6264,"target":34963},{"buffer":1,"byteOffset":6264,"byteLength":18840,"target":34962},{"buffer":1,"byteOffset":25104,"byteLength":18840,"target":34962},{"buffer":1,"byteOffset":43944,"byteLength":12560,"target":34962},{"buffer":2,"byteOffset":0,"byteLength":11736,"target":34963},{"buffer":2,"byteOffset":11736,"byteLength":25848,"target":34962},{"buffer":2,"byteOffset":37584,"byteLength":25848,"target":34962},{"buffer":2,"byteOffset":63432,"byteLength":17232,"target":34962},{"buffer":2,"byteOffset":80664,"byteLength":25848,"target":34962},{"buffer":3,"byteOffset":0,"byteLength":12816,"target":34963},{"buffer":3,"byteOffset":12816,"byteLength":26880,"target":34962},{"buffer":3,"byteOffset":39696,"byteLength":26880,"target":34962},{"buffer":3,"byteOffset":66576,"byteLength":17920,"target":34962},{"buffer":3,"byteOffset":84496,"byteLength":26880,"target":34962},{"buffer":4,"byteOffset":0,"byteLength":12816,"target":34963},{"buffer":4,"byteOffset":12816,"byteLength":26880,"target":34962},{"buffer":4,"byteOffset":39696,"byteLength":26880,"target":34962},{"buffer":4,"byteOffset":66576,"byteLength":17920,"target":34962},{"buffer":4,"byteOffset":84496,"byteLength":26880,"target":34962},{"buffer":5,"byteOffset":0,"byteLength":11736,"target":34963},{"buffer":5,"byteOffset":11736,"byteLength":25848,"target":34962},{"buffer":5,"byteOffset":37584,"byteLength":25848,"target":34962},{"buffer":5,"byteOffset":63432,"byteLength":17232,"target":34962},{"buffer":5,"byteOffset":80664,"byteLength":25848,"target":34962},{"buffer":6,"byteOffset":0,"byteLength":4944,"target":34963},{"buffer":6,"byteOffset":4944,"byteLength":9984,"target":34962},{"buffer":6,"byteOffset":14928,"byteLength":9984,"target":34962},{"buffer":6,"byteOffset":24912,"byteLength":9984,"target":34962}],"accessors":[{"bufferView":0,"byteOffset":0,"componentType":5123,"count":3132,"type":"SCALAR","min":[0],"max":[1569]},{"bufferView":1,"byteOffset":0,"componentType":5126,"count":1570,"type":"VEC3","min":[-32.056427001953125,-5.80625581741333,-30.90030288696289],"max":[32.056427001953125,5.80625581741333,30.902542114257812]},{"bufferView":2,"byteOffset":0,"componentType":5126,"count":1570,"type":"VEC3","min":[-0.9999805092811584,-1,-0.9999327063560486],"max":[0.9999805092811584,1,1]},{"bufferView":3,"byteOffset":0,"componentType":5126,"count":1570,"type":"VEC2","min":[0,0],"max":[1,1]},{"bufferView":4,"byteOffset":0,"componentType":5123,"count":3132,"type":"SCALAR","min":[0],"max":[1569]},{"bufferView":5,"byteOffset":0,"componentType":5126,"count":1570,"type":"VEC3","min":[-32.056427001953125,-6.829183101654053,-30.90030288696289],"max":[32.056427001953125,6.829183101654053,30.902542114257812]},{"bufferView":6,"byteOffset":0,"componentType":5126,"count":1570,"type":"VEC3","min":[-0.9999805092811584,-1,-0.9999327063560486],"max":[0.9999805092811584,1,1]},{"bufferView":7,"byteOffset":0,"componentType":5126,"count":1570,"type":"VEC2","min":[0,0],"max":[1,1]},{"bufferView":8,"byteOffset":0,"componentType":5123,"count":5868,"type":"SCALAR","min":[0],"max":[2153]},{"bufferView":9,"byteOffset":0,"componentType":5126,"count":2154,"type":"VEC3","min":[-104.59051513671875,-15.122682571411133,0],"max":[101.719482421875,7.417317867279053,6.908642768859863]},{"bufferView":10,"byteOffset":0,"componentType":5126,"count":2154,"type":"VEC3","min":[-1,-1,-1],"max":[1,1,1]},{"bufferView":11,"byteOffset":0,"componentType":5126,"count":2154,"type":"VEC2","min":[0,0],"max":[1,1]},{"bufferView":12,"byteOffset":0,"componentType":5126,"count":2154,"type":"VEC3","min":[0.7255094051361084,0.823393702507019,0.15030167996883392],"max":[0.7255094051361084,0.823393702507019,0.15030167996883392]},{"bufferView":13,"byteOffset":0,"componentType":5123,"count":6408,"type":"SCALAR","min":[0],"max":[2239]},{"bufferView":14,"byteOffset":0,"componentType":5126,"count":2240,"type":"VEC3","min":[-87.9579849243164,6.0397820472717285,0],"max":[-16.23299217224121,19.339780807495117,15.73137378692627]},{"bufferView":15,"byteOffset":0,"componentType":5126,"count":2240,"type":"VEC3","min":[-1,-1,-1],"max":[1,1,1]},{"bufferView":16,"byteOffset":0,"componentType":5126,"count":2240,"type":"VEC2","min":[0,0],"max":[1,1]},{"bufferView":17,"byteOffset":0,"componentType":5126,"count":2240,"type":"VEC3","min":[0.35379377007484436,0.9245006442070007,0.4432727098464966],"max":[0.35379377007484436,0.9245006442070007,0.4432727098464966]},{"bufferView":18,"byteOffset":0,"componentType":5123,"count":6408,"type":"SCALAR","min":[0],"max":[2239]},{"bufferView":19,"byteOffset":0,"componentType":5126,"count":2240,"type":"VEC3","min":[-87.9579849243164,6.0397820472717285,0],"max":[-16.23299217224121,19.339780807495117,15.73137378692627]},{"bufferView":20,"byteOffset":0,"componentType":5126,"count":2240,"type":"VEC3","min":[-1,-1,-1],"max":[1,1,1]},{"bufferView":21,"byteOffset":0,"componentType":5126,"count":2240,"type":"VEC2","min":[0,0],"max":[1,1]},{"bufferView":22,"byteOffset":0,"componentType":5126,"count":2240,"type":"VEC3","min":[0.0670744851231575,0.39130109548568726,0.7473158240318298],"max":[0.0670744851231575,0.39130109548568726,0.7473158240318298]},{"bufferView":23,"byteOffset":0,"componentType":5123,"count":5868,"type":"SCALAR","min":[0],"max":[2153]},{"bufferView":24,"byteOffset":0,"componentType":5126,"count":2154,"type":"VEC3","min":[-104.59051513671875,-15.122682571411133,0],"max":[101.719482421875,7.417317867279053,19.174278259277344]},{"bufferView":25,"byteOffset":0,"componentType":5126,"count":2154,"type":"VEC3","min":[-1,-1,-1],"max":[1,1,1]},{"bufferView":26,"byteOffset":0,"componentType":5126,"count":2154,"type":"VEC2","min":[0,0],"max":[1,1]},{"bufferView":27,"byteOffset":0,"componentType":5126,"count":2154,"type":"VEC3","min":[0.17252406477928162,0.17252406477928162,0.17252406477928162],"max":[0.17252406477928162,0.17252406477928162,0.17252406477928162]},{"bufferView":28,"byteOffset":0,"componentType":5125,"count":1236,"type":"SCALAR","min":[0],"max":[311]},{"bufferView":29,"byteOffset":0,"componentType":5126,"count":312,"type":"VEC3","min":[-74.5,-50,0],"max":[74.5,50,8]},{"bufferView":30,"byteOffset":0,"componentType":5126,"count":312,"type":"VEC3","min":[-1,-1,-1],"max":[1,1,1]},{"bufferView":31,"byteOffset":0,"componentType":5126,"count":312,"type":"VEC2","min":[0,0],"max":[1,1]}],"extensions":{"KHR_lights_punctual":{"lights":[]}},"extensionsUsed":["KHR_lights_punctual"]}