<svg width="95" height="95" viewBox="0 0 95 95" fill="none" xmlns="http://www.w3.org/2000/svg">
<g clip-path="url(#clip0_25_2141)">
<path d="M0 47.5085C12.5986 47.504 24.68 42.4973 33.5886 33.5887C42.4972 24.6802 47.5039 12.5988 47.5083 0.00012207C34.9083 0.00012207 22.8243 5.00535 13.9148 13.9149C5.00522 22.8245 0 34.9084 0 47.5085Z" fill="white"/>
<path d="M47.5425 95.0674C47.5381 82.4703 42.5306 70.3909 33.6216 61.485C24.7125 52.579 12.6313 47.5759 0.0341797 47.5759C0.0386467 60.173 5.04585 72.2525 13.9549 81.1584C22.864 90.0643 34.9454 95.0674 47.5425 95.0674Z" fill="white"/>
<path d="M95 47.5084C88.7605 47.5128 82.5829 48.7465 76.8204 51.1394C71.058 53.5323 65.8236 57.0374 61.4163 61.4541C57.009 65.8708 53.5152 71.1128 51.1346 76.8804C48.754 82.6479 47.5332 88.8278 47.542 95.0674C53.7816 95.0629 59.959 93.8288 65.7214 91.436C71.4839 89.0431 76.7184 85.5384 81.1257 81.1217C85.533 76.705 89.0269 71.4629 91.4075 65.6954C93.7881 59.9279 95.0089 53.7479 95 47.5084Z" fill="white"/>
<path d="M47.542 0.00012207C47.542 12.5972 52.5451 24.6784 61.451 33.5875C70.3569 42.4966 82.4364 47.504 95.0335 47.5085C95.0357 41.2704 93.8089 35.0928 91.4233 29.3289C89.0376 23.565 85.5398 18.3275 81.1296 13.9157C76.7194 9.50394 71.4832 6.00444 65.7201 3.61671C59.9571 1.22898 53.7801 0.000121678 47.542 0.00012207Z" fill="white"/>
</g>
<defs>
<clipPath id="clip0_25_2141">
<rect width="95" height="95" fill="white"/>
</clipPath>
</defs>
</svg>
