<svg width="115" height="26" viewBox="0 0 115 26" fill="none" xmlns="http://www.w3.org/2000/svg">
<g clip-path="url(#clip0_40_1820)">
<path d="M18.3001 12.9945H6.10352C6.10352 9.64399 8.84582 6.89062 12.2074 6.89062C15.5689 6.89062 18.3112 9.63293 18.3112 12.9945H18.3001Z" fill="#292C33"/>
<path d="M12.1966 0.797852C5.4625 0.797852 0 6.26035 0 12.9945C0 19.7286 5.4625 25.1911 12.1966 25.1911C18.9308 25.1911 24.3933 19.7286 24.3933 12.9945C24.3933 6.26035 18.9418 0.797852 12.1966 0.797852ZM12.1966 22.1503C7.16538 22.1503 3.04087 18.0368 3.04087 12.9945C3.04087 7.95218 7.16538 3.84977 12.1966 3.84977C17.2279 3.84977 21.3524 7.96324 21.3524 13.0055C21.3524 18.0479 17.2389 22.1613 12.1966 22.1613V22.1503Z" fill="#292C33"/>
<path d="M35.9371 9.67701H39.166V12.6958H35.9371V22.1169H32.277V12.6958H30.5078V9.67701H32.277V9.12413C32.277 7.44336 32.7304 6.13855 33.6482 5.22076C34.566 4.30297 35.8155 3.84961 37.3968 3.84961C38.2482 3.84961 38.9227 3.97124 39.4424 4.24769V7.38807C39.0443 7.17797 38.5578 7.05634 38.0381 7.05634C37.4631 7.05634 36.9434 7.21115 36.5453 7.54288C36.1472 7.85249 35.9371 8.39432 35.9371 9.1573V9.67701Z" fill="#292C33"/>
<path d="M52.2811 19.1649C51.7614 20.2044 50.9984 21.0005 50.0253 21.5755C49.0523 22.1505 47.858 22.4601 46.52 22.4601C45.547 22.4601 44.6623 22.3053 43.833 21.9736C43.0369 21.664 42.3402 21.2106 41.7542 20.6356C41.1792 20.0606 40.7148 19.3529 40.383 18.5568C40.0513 17.7606 39.8965 16.876 39.8965 15.9029C39.8965 14.9298 40.0513 14.1005 40.383 13.2822C40.7148 12.4861 41.1792 11.7895 41.7542 11.2034C42.3292 10.6284 43.0037 10.164 43.7998 9.83224C44.596 9.50051 45.4474 9.3457 46.3652 9.3457C47.283 9.3457 48.1676 9.50051 48.9527 9.83224C49.7489 10.164 50.4123 10.6284 50.9652 11.2034C51.5181 11.7784 51.9383 12.4861 52.2811 13.3044C52.5907 14.1226 52.7345 15.0072 52.7345 15.9914V16.5443C52.7345 16.6991 52.7345 16.8207 52.7013 16.9092H43.5455C43.5787 17.2741 43.6672 17.6058 43.8551 17.9154C44.0431 18.225 44.2532 18.4904 44.5297 18.7116C44.8061 18.9217 45.1047 19.1096 45.4806 19.2313C45.8123 19.3529 46.1773 19.4193 46.5753 19.4193C47.272 19.4193 47.8248 19.2976 48.2229 19.0212C48.621 18.7447 48.9859 18.3798 49.2623 17.9265L52.3696 19.176H52.2811V19.1649ZM49.1075 14.5318C49.0191 13.8572 48.7426 13.3154 48.2229 12.8842C47.7032 12.4529 47.095 12.2428 46.3321 12.2428C45.9672 12.2428 45.6354 12.3092 45.2926 12.4308C44.983 12.5524 44.6845 12.7404 44.4412 12.9505C44.1979 13.1606 43.9878 13.4039 43.833 13.6803C43.6782 13.9568 43.5898 14.2332 43.5234 14.5318H49.1075Z" fill="#292C33"/>
<path d="M66.3141 22.1498L63.7266 14.52L61.1391 22.1498H58.054L53.6641 9.67676H57.4126L59.8232 17.207L62.3886 9.67676H65.1088L67.6742 17.207L70.14 9.67676H73.8001L69.377 22.1498H66.3251H66.3141Z" fill="#292C33"/>
<path d="M74.7389 15.9029C74.7389 14.952 74.8937 14.1005 75.2254 13.2822C75.5571 12.4861 76.0216 11.7895 76.5966 11.2034C77.1716 10.6284 77.8793 10.164 78.6975 9.83224C79.5158 9.50051 80.4004 9.3457 81.3846 9.3457C81.9374 9.3457 82.4571 9.41205 82.999 9.53368C83.5519 9.65532 84.0384 9.86541 84.4918 10.1087V13.5587C83.6403 12.9505 82.7225 12.6409 81.7716 12.6409C81.285 12.6409 80.8206 12.7294 80.4336 12.8842C80.0355 13.039 79.6706 13.2822 79.361 13.5587C79.0514 13.8351 78.8081 14.2 78.6644 14.5981C78.4764 14.9962 78.4211 15.4164 78.4211 15.914C78.4211 16.4116 78.5096 16.8318 78.6644 17.2298C78.8192 17.6279 79.0624 17.9596 79.361 18.2693C79.6706 18.5457 80.0355 18.789 80.4336 18.9438C80.8317 19.0986 81.285 19.187 81.7716 19.187C82.2581 19.187 82.7447 19.0986 83.2091 18.9106C83.6624 18.7226 84.1269 18.5125 84.4918 18.214V21.6861C83.9721 21.9625 83.4523 22.1726 82.9105 22.2943C82.3576 22.4159 81.8158 22.4822 81.2961 22.4822C80.3451 22.4822 79.4605 22.3274 78.6422 21.9957C77.8461 21.6861 77.1495 21.2327 76.5413 20.6577C75.9663 20.0827 75.5019 19.4082 75.1701 18.5789C74.8384 17.7606 74.6836 16.876 74.6836 15.8919L74.7499 15.925L74.7389 15.9029Z" fill="#292C33"/>
<path d="M90.8066 22.1503H87.1133V4.49121H90.8066V11.2585C91.2046 10.6503 91.6912 10.1859 92.2993 9.85419C92.9075 9.52246 93.6373 9.33448 94.4998 9.33448C95.9373 9.33448 97.0652 9.78785 97.8503 10.7056C98.6465 11.6234 99.0666 12.8729 99.0666 14.4321V22.1172H95.3734V15.2503C95.3734 14.4542 95.1854 13.8128 94.7984 13.3595C94.4003 12.9061 93.8474 12.685 93.1508 12.685C92.4541 12.685 91.8349 12.9282 91.4147 13.4479C90.9835 13.9677 90.7734 14.6422 90.7734 15.4936V22.1172L90.8066 22.1503Z" fill="#292C33"/>
<path d="M115 9.67712V22.1502H111.406V20.4694C110.975 21.1108 110.4 21.5973 109.67 21.929C108.974 22.2608 108.177 22.4488 107.348 22.4488C106.519 22.4488 105.734 22.2608 105.004 21.929C104.307 21.5973 103.666 21.1329 103.146 20.5579C102.627 19.9829 102.195 19.2752 101.897 18.479C101.587 17.6829 101.443 16.8314 101.443 15.8915C101.443 14.9516 101.598 14.1223 101.897 13.3262C102.206 12.53 102.627 11.8334 103.146 11.2473C103.666 10.6723 104.307 10.2079 105.004 9.87616C105.701 9.54443 106.497 9.35645 107.348 9.35645C108.2 9.35645 108.929 9.51125 109.67 9.84298C110.367 10.1526 110.953 10.6391 111.406 11.2805V9.66606H115V9.67712ZM105.115 15.9026C105.115 16.356 105.203 16.7872 105.358 17.1521C105.546 17.5502 105.756 17.8819 106.032 18.1584C106.309 18.4348 106.64 18.6781 107.039 18.855C107.437 19.043 107.835 19.0983 108.288 19.0983C108.741 19.0983 109.173 19.0098 109.538 18.855C109.936 18.7002 110.267 18.4569 110.544 18.1584C110.82 17.8488 111.064 17.517 111.218 17.1521C111.406 16.754 111.462 16.3338 111.462 15.9026C111.462 15.4713 111.373 15.018 111.218 14.6531C111.064 14.255 110.82 13.9233 110.544 13.6468C110.267 13.3372 109.936 13.1271 109.538 12.9502C109.14 12.7622 108.741 12.7069 108.288 12.7069C107.835 12.7069 107.403 12.7954 107.039 12.9502C106.64 13.105 106.309 13.3483 106.032 13.6468C105.756 13.9564 105.513 14.2882 105.358 14.6531C105.203 15.0512 105.115 15.4713 105.115 15.9026Z" fill="#292C33"/>
</g>
<defs>
<clipPath id="clip0_40_1820">
<rect width="115" height="24.4043" fill="white" transform="translate(0 0.797852)"/>
</clipPath>
</defs>
</svg>
