<svg xmlns="http://www.w3.org/2000/svg" width="34" height="29" viewBox="0 0 34 29" fill="none"><path fill-rule="evenodd" clip-rule="evenodd" d="M4.30032 7.10755C6.92536 1.82593 14.0707 -1.47637 21.5678 0.656789C24.9161 1.66355 27.7609 3.85161 29.5479 6.79476C27.3402 6.29568 25.0912 5.99021 22.8278 5.88201V4.06164L20.2605 4.29752C19.9192 4.29736 19.5892 4.41754 19.3313 4.63596C19.2303 4.72597 19.1521 4.83768 19.1029 4.96227C19.0537 5.08686 19.0348 5.22091 19.0478 5.35385V5.86663C17.4746 5.97671 15.9092 6.17532 14.3595 6.46145V4.79492L11.6767 5.18976C11.3452 5.23918 11.0431 5.40388 10.826 5.65357C10.609 5.90325 10.4916 6.2211 10.4954 6.54862L10.4429 7.51265C8.99389 8.10747 7.70237 8.65615 6.51585 9.2202C4.68883 10.0868 3.57581 8.56897 4.30032 7.10755ZM23.2058 10.3791C24.4501 9.8971 28.0674 9.18946 30.4195 8.84077C30.4195 8.84077 32.0732 12.3123 30.6925 18.1118C28.6922 26.3932 19.1265 31.3774 11.0782 27.8546C4.07983 24.7882 7.97013 19.4502 8.80489 18.5323C9.40456 17.8212 10.0804 17.1748 10.8209 16.6042V20.1937L13.3462 19.7117C13.7238 19.6401 14.0641 19.4423 14.3084 19.1521C14.5528 18.862 14.6859 18.4978 14.685 18.1221V13.907C16.1844 13.0383 17.7521 12.2873 19.3733 11.6611V18.2657L21.9353 18.0093C22.2716 17.9749 22.5834 17.8217 22.8121 17.5785C23.0378 17.3336 23.1631 17.0159 23.1638 16.6863L23.2058 10.3791ZM34 6.96912L30.5507 6.55377L31.9262 7.36909L31.0337 9.06126L34 6.96912ZM23.7676 8.99971C17.4833 10.4458 1.74879 15.0351 4.61533 24.7779C5.04012 26.1224 5.99362 27.2473 7.26661 27.9059C2.00604 26.6291 -0.214741 23.4652 0.0162626 20.3885C0.57277 12.9943 12.8212 6.43069 28.7499 7.35369C29.4226 7.36885 30.0924 7.44611 30.7502 7.58444C28.8707 7.85109 26.4346 8.38951 23.7676 8.99971Z" fill="white"></path></svg>