<svg width="35" height="24" viewBox="0 0 35 24" fill="none" xmlns="http://www.w3.org/2000/svg">
<path d="M0.483456 15.1007C-0.086376 13.2658 2.09952 13.1156 3.13163 14.7362C4.10751 16.2685 5.45055 17.7103 7.29894 18.6782C8.43872 19.2744 9.4074 19.5016 10.7654 19.8188C16.494 21.1585 21.4424 19.8355 22.9846 19.4026C24.0649 19.1003 24.317 18.9538 28.3736 17.7083C29.9547 17.2246 31.4152 16.7891 33.3542 16.8458C33.9194 16.8623 33.9641 17.5853 33.4296 17.7698C32.4454 18.1096 31.4804 18.5048 30.539 18.9538C28.5604 19.8954 27.8818 20.5065 26.1634 21.3599C24.135 22.3582 21.9773 23.0645 19.7538 23.458C17.6875 23.8485 14.2004 24.5095 10.0182 23.3373C8.24448 22.8377 5.28802 21.9694 2.88698 19.2577C1.21162 17.3678 0.600822 15.4787 0.483456 15.1007Z" fill="#496AFF"/>
<path d="M2.90347 5.26526C3.31898 4.21484 4.53847 5.02427 4.4123 6.14681C4.34648 6.7325 4.32763 7.34987 4.37284 7.99404C4.45399 9.12772 4.71635 10.2408 5.14977 11.2902C6.6028 14.7278 9.78986 16.8359 9.58488 17.0807C9.57083 17.0982 9.53529 17.1115 9.43776 17.0807C8.37734 16.6802 5.96637 15.5987 4.17696 13.0386C3.64964 12.2834 2.50077 10.6383 2.3768 8.40367C2.31253 7.25471 2.53322 6.2013 2.90347 5.26526Z" fill="#889DFF"/>
<path d="M18.1526 8.85339C18.3096 8.82092 18.5799 5.8037 16.764 4.15688C15.7499 3.24106 14.5002 3.122 14.0588 3.0812C13.8175 3.05873 12 2.91885 10.3932 4.12108C8.08557 5.84616 8.11615 8.91417 8.15086 9.64267C8.29881 12.7848 10.5205 14.8321 10.9982 15.2717C16.5541 20.3894 26.7451 16.8535 28.3676 15.9885C28.4411 15.9494 28.7197 15.797 29.1114 15.6297C29.8594 15.3133 30.8174 15.031 32.9911 14.8803C33.7739 14.8246 33.9521 13.8814 33.182 13.7306C32.6186 13.6203 32.1245 13.5709 31.7133 13.5507C30.5653 13.4933 29.4412 13.634 27.1931 13.9087C26.2426 14.0261 25.8847 14.0911 25.1268 14.196C20.7057 14.8104 18.4493 15.1001 16.1929 14.2318C14.887 13.7322 14.0985 13.0912 13.8439 12.8689C13.2331 12.3377 12.0008 11.2653 11.7437 9.49863C11.6991 9.19391 11.3801 6.75116 12.9893 5.6988C14.0142 5.02775 15.1978 5.33996 15.3366 5.37576C16.4227 5.67798 16.9955 6.54135 17.3657 7.09667C18.0278 8.08743 18.0708 8.87088 18.1526 8.85339Z" fill="#496AFF"/>
<path d="M6.44111 6.7745C6.38408 6.13592 6.32209 4.4941 7.29573 2.8298C7.50071 2.48012 8.09498 1.48853 9.21739 0.786681C9.64355 0.520118 10.083 0.334538 10.5207 0.210866C11.5565 -0.081793 11.5171 1.07289 10.5579 1.56119C9.77849 1.95798 9.24783 2.42992 8.87273 2.88059C7.53873 4.48245 7.00727 7.20993 6.60311 7.11003C6.50475 7.08838 6.46177 6.90688 6.44111 6.7745Z" fill="#889DFF"/>
</svg>
